<?xml version="1.0" encoding="UTF-8"?>
<svg width="72px" height="26px" viewBox="0 0 72 26" version="1.1" xmlns="http://www.w3.org/2000/svg" xmlns:xlink="http://www.w3.org/1999/xlink">
    <title>Button-FreeTheme</title>
    <g id="THEMES" stroke="none" stroke-width="1" fill="none" fill-rule="evenodd">
        <g id="Profile-Theme-Preview-v2---Expand-Accordion" transform="translate(-216, -1237)">
            <g id="Button-FreeTheme" transform="translate(216, 1237)">
                <g id="Group-12" fill="#FFFFFF">
                    <rect id="Rectangle" x="0" y="0" width="72" height="26"></rect>
                </g>
                <text id="Theme" font-family="Montserrat-Bold, Montserrat" font-size="8" font-weight="bold" line-spacing="7" fill="#287091">
                    <tspan x="34" y="18"> Theme</tspan>
                </text>
                <g id="Group-10" transform="translate(5, 6)">
                    <text id="FREE" font-family="Montserrat-Black, Montserrat" font-size="6" font-weight="800" line-spacing="6" fill="#B80000">
                        <tspan x="3" y="10">FREE</tspan>
                    </text>
                    <path d="M23.5113336,0.5 C26.4383197,4.52517213 28,6.68960255 28,7 C28,7.3021393 26.5139281,9.36309846 23.7365342,13.1896725 L2,13.5 C1.58578644,13.5 1.21078644,13.3321068 0.939339828,13.0606602 C0.667893219,12.7892136 0.5,12.4142136 0.5,12 L0.5,3 C0.5,2.30964406 0.779822031,1.68464406 1.23223305,1.23223305 C1.68464406,0.779822031 2.30964406,0.5 3,0.5 Z" id="Rectangle" stroke="#B80000"></path>
                    <circle id="Oval" stroke="#B80000" cx="23" cy="7" r="1.5"></circle>
                </g>
            </g>
        </g>
    </g>
</svg>