<?xml version="1.0" encoding="UTF-8"?>
<svg width="79px" height="26px" viewBox="0 0 79 26" version="1.1" xmlns="http://www.w3.org/2000/svg" xmlns:xlink="http://www.w3.org/1999/xlink">
    <title>Button-BuyTheme</title>
    <g id="THEMES" stroke="none" stroke-width="1" fill="none" fill-rule="evenodd">
        <g id="Profile-Theme-Preview-v2---Expand-Accordion" transform="translate(-291, -1237)">
            <g id="Button-BuyTheme" transform="translate(291, 1237)">
                <g id="Group-12" fill="#FFFFFF">
                    <rect id="Rectangle" x="0" y="0" width="79" height="26"></rect>
                </g>
                <g id="Group-13" transform="translate(5, 2)">
                    <text id="Buy-Theme" font-family="Montserrat-Bold, Montserrat" font-size="8" font-weight="bold" line-spacing="6" fill="#287091">
                        <tspan x="22" y="17">Buy Theme</tspan>
                    </text>
                    <g id="Group-18" fill="#0E4B67" fill-rule="nonzero">
                        <g id="monetization_on_FILL0_wght400_GRAD0_opsz24" transform="translate(9, 0)">
                            <path d="M4.55,8.5 L5.425,8.5 L5.425,7.875 C5.84166667,7.8 6.2,7.6375 6.5,7.3875 C6.8,7.1375 6.95,6.76666667 6.95,6.275 C6.95,5.925 6.85,5.60416667 6.65,5.3125 C6.45,5.02083333 6.05,4.76666667 5.45,4.55 C4.95,4.38333333 4.60416667,4.2375 4.4125,4.1125 C4.22083333,3.9875 4.125,3.81666667 4.125,3.6 C4.125,3.38333333 4.20208333,3.2125 4.35625,3.0875 C4.51041667,2.9625 4.73333333,2.9 5.025,2.9 C5.29166667,2.9 5.5,2.96458333 5.65,3.09375 C5.8,3.22291667 5.90833333,3.38333333 5.975,3.575 L6.775,3.25 C6.68333333,2.95833333 6.51458333,2.70416667 6.26875,2.4875 C6.02291667,2.27083333 5.75,2.15 5.45,2.125 L5.45,1.5 L4.575,1.5 L4.575,2.125 C4.15833333,2.21666667 3.83333333,2.4 3.6,2.675 C3.36666667,2.95 3.25,3.25833333 3.25,3.6 C3.25,3.99166667 3.36458333,4.30833333 3.59375,4.55 C3.82291667,4.79166667 4.18333333,5 4.675,5.175 C5.2,5.36666667 5.56458333,5.5375 5.76875,5.6875 C5.97291667,5.8375 6.075,6.03333333 6.075,6.275 C6.075,6.55 5.97708333,6.75208333 5.78125,6.88125 C5.58541667,7.01041667 5.35,7.075 5.075,7.075 C4.8,7.075 4.55625,6.98958333 4.34375,6.81875 C4.13125,6.64791667 3.975,6.39166667 3.875,6.05 L3.05,6.375 C3.16666667,6.775 3.34791667,7.09791667 3.59375,7.34375 C3.83958333,7.58958333 4.15833333,7.75833333 4.55,7.85 L4.55,8.5 Z M5,10 C4.30833333,10 3.65833333,9.86875 3.05,9.60625 C2.44166667,9.34375 1.9125,8.9875 1.4625,8.5375 C1.0125,8.0875 0.65625,7.55833333 0.39375,6.95 C0.13125,6.34166667 0,5.69166667 0,5 C0,4.30833333 0.13125,3.65833333 0.39375,3.05 C0.65625,2.44166667 1.0125,1.9125 1.4625,1.4625 C1.9125,1.0125 2.44166667,0.65625 3.05,0.39375 C3.65833333,0.13125 4.30833333,0 5,0 C5.69166667,0 6.34166667,0.13125 6.95,0.39375 C7.55833333,0.65625 8.0875,1.0125 8.5375,1.4625 C8.9875,1.9125 9.34375,2.44166667 9.60625,3.05 C9.86875,3.65833333 10,4.30833333 10,5 C10,5.69166667 9.86875,6.34166667 9.60625,6.95 C9.34375,7.55833333 8.9875,8.0875 8.5375,8.5375 C8.0875,8.9875 7.55833333,9.34375 6.95,9.60625 C6.34166667,9.86875 5.69166667,10 5,10 Z M5,9 C6.11666667,9 7.0625,8.6125 7.8375,7.8375 C8.6125,7.0625 9,6.11666667 9,5 C9,3.88333333 8.6125,2.9375 7.8375,2.1625 C7.0625,1.3875 6.11666667,1 5,1 C3.88333333,1 2.9375,1.3875 2.1625,2.1625 C1.3875,2.9375 1,3.88333333 1,5 C1,6.11666667 1.3875,7.0625 2.1625,7.8375 C2.9375,8.6125 3.88333333,9 5,9 Z" id="Shape"></path>
                        </g>
                        <path d="M2,21 C1.45,21 0.979166667,20.8041667 0.5875,20.4125 C0.195833333,20.0208333 0,19.55 0,19 L0,5 C0,4.45 0.195833333,3.97916667 0.5875,3.5875 C0.979166667,3.19583333 1.45,3 2,3 L8.65205497,3 L8.00432981,5 L2,5 L2,19 L16,19 L16,10.9277253 L18,10 L18,19 C18,19.55 17.8041667,20.0208333 17.4125,20.4125 C17.0208333,20.8041667 16.55,21 16,21 L2,21 Z M3,17 L6,13 L8.25,16 L11.25,12 L15,17 L3,17 Z" id="Shape"></path>
                    </g>
                </g>
            </g>
        </g>
    </g>
</svg>